<svg xmlns="http://www.w3.org/2000/svg" xmlns:xlink="http://www.w3.org/1999/xlink" width="500" zoomAndPan="magnify" viewBox="0 0 375 374.999991" height="500" preserveAspectRatio="xMidYMid meet" version="1.0"><defs><clipPath id="2028256865"><path d="M 23.277344 9.480469 L 207 9.480469 L 207 229.875 L 23.277344 229.875 Z M 23.277344 9.480469 " clip-rule="nonzero"/></clipPath><clipPath id="66d565bd81"><path d="M 121.171875 13.496094 L 206.164062 215.773438 C 207.457031 218.851562 207.125 222.371094 205.277344 225.148438 C 203.429688 227.929688 200.3125 229.601562 196.972656 229.601562 L 33.75 229.601562 C 30.410156 229.601562 27.296875 227.929688 25.449219 225.148438 C 23.601562 222.371094 23.265625 218.851562 24.558594 215.773438 L 109.550781 13.496094 C 110.535156 11.15625 112.824219 9.632812 115.363281 9.632812 C 117.898438 9.632812 120.191406 11.15625 121.171875 13.496094 Z M 121.171875 13.496094 " clip-rule="nonzero"/></clipPath><clipPath id="6d008217af"><path d="M 168 145 L 351.714844 145 L 351.714844 365.1875 L 168 365.1875 Z M 168 145 " clip-rule="nonzero"/></clipPath><clipPath id="72403259c3"><path d="M 253.820312 361.171875 L 168.832031 158.894531 C 167.539062 155.816406 167.871094 152.296875 169.71875 149.515625 C 171.566406 146.734375 174.683594 145.066406 178.019531 145.066406 L 341.246094 145.066406 C 344.582031 145.066406 347.699219 146.734375 349.546875 149.515625 C 351.394531 152.296875 351.726562 155.816406 350.433594 158.894531 L 265.441406 361.171875 C 264.460938 363.507812 262.167969 365.03125 259.632812 365.03125 C 257.09375 365.03125 254.804688 363.507812 253.820312 361.171875 Z M 253.820312 361.171875 " clip-rule="nonzero"/></clipPath><clipPath id="d49d916785"><path d="M 67.941406 145.066406 L 307.058594 145.066406 L 307.058594 229.601562 L 67.941406 229.601562 Z M 67.941406 145.066406 " clip-rule="nonzero"/></clipPath></defs><g clip-path="url(#2028256865)"><g clip-path="url(#66d565bd81)"><path fill="#3cc88b" d="M 18.75 -0.332031 L 211.972656 -0.332031 L 211.972656 229.875 L 18.75 229.875 Z M 18.75 -0.332031 " fill-opacity="1" fill-rule="nonzero"/></g></g><g clip-path="url(#6d008217af)"><g clip-path="url(#72403259c3)"><path fill="#3cc88b" d="M 356.246094 375 L 163.019531 375 L 163.019531 144.789062 L 356.246094 144.789062 Z M 356.246094 375 " fill-opacity="1" fill-rule="nonzero"/></g></g><g clip-path="url(#d49d916785)"><path fill="#3cc88b" d="M 67.941406 145.066406 L 307.019531 145.066406 L 307.019531 229.601562 L 67.941406 229.601562 Z M 67.941406 145.066406 " fill-opacity="1" fill-rule="nonzero"/></g></svg>